<svg id="Capa_1" enable-background="new 0 0 512 512" height="512" viewBox="0 0 512 512" width="512" xmlns="http://www.w3.org/2000/svg"><g><g><path d="m25.068 257.762h462.123v246.738h-462.123z" fill="#ddeafb"/><path d="m25.068 257.762h47.616v246.739h-47.616z" fill="#bed8fb"/><path d="m313.725 305.935c-3.283 0-5.945 2.661-5.945 5.945v192.62h179.411v-198.565z" fill="#9dc6fb"/><path d="m313.725 305.935c-3.283 0-5.945 2.661-5.945 5.945v192.62h31.667v-192.62c0-3.283 2.662-5.945 5.945-5.945z" fill="#80b4fb"/><g><path d="m25.068 33.928h269.906v206.833h-269.906z" fill="#ddeafb"/></g><path d="m25.068 33.928h47.616v206.833h-47.616z" fill="#bed8fb"/><path d="m496.62 235.052h-480.982c-4.157 0-7.527 3.37-7.527 7.527v16.152c0 4.157 3.37 7.527 7.527 7.527h480.982c4.157 0 7.527-3.37 7.527-7.527v-16.152c0-4.157-3.37-7.527-7.527-7.527z" fill="#bed8fb"/><path d="m55.727 258.731v-16.152c0-4.157 3.37-7.527 7.527-7.527h-47.616c-4.157 0-7.527 3.37-7.527 7.527v16.152c0 4.157 3.37 7.527 7.527 7.527h47.616c-4.157 0-7.527-3.37-7.527-7.527z" fill="#9dc6fb"/><path d="m304.016 7.5h-288.378c-4.157 0-7.527 3.37-7.527 7.527v16.152c0 4.157 3.37 7.527 7.527 7.527h288.378c4.157 0 7.527-3.37 7.527-7.527v-16.152c0-4.157-3.37-7.527-7.527-7.527z" fill="#bed8fb"/><path d="m55.727 31.179v-16.152c0-4.157 3.37-7.527 7.527-7.527h-47.616c-4.157 0-7.527 3.37-7.527 7.527v16.152c0 4.157 3.37 7.527 7.527 7.527h47.616c-4.157.001-7.527-3.369-7.527-7.527z" fill="#9dc6fb"/><path d="m224.891 333.178h31.207v171.322h-31.207z" fill="#7b6c79"/><path d="m71.664 333.178h31.207v171.322h-31.207z" fill="#665e68"/><path d="m130.784 394.095h66.193v110.405h-66.193z" fill="#7b6c79"/><path d="m130.784 394.095h29.237v110.405h-29.237z" fill="#665e68"/><path d="m192.981 366.121h-58.202c-2.207 0-3.995 1.789-3.995 3.995v26.453h66.193v-26.453c0-2.206-1.789-3.995-3.996-3.995z" fill="#938493"/><path d="m164.016 366.121h-29.236c-2.207 0-3.995 1.789-3.995 3.995v26.453h29.237v-26.453c-.001-2.206 1.787-3.995 3.994-3.995z" fill="#7b6c79"/><path d="m270.034 329.615v-16.152c0-4.157-3.37-7.527-7.527-7.527h-197.253c-4.157 0-7.527 3.37-7.527 7.527v16.152c0 4.157 3.37 7.527 7.527 7.527h197.253c4.157 0 7.527-3.37 7.527-7.527z" fill="#bed8fb"/><path d="m98.727 329.615v-16.152c0-4.157 3.37-7.527 7.527-7.527h-41c-4.157 0-7.527 3.37-7.527 7.527v16.152c0 4.157 3.37 7.527 7.527 7.527h41c-4.157 0-7.527-3.37-7.527-7.527z" fill="#9dc6fb"/><g><path d="m496.082 512h-479.905c-4.142 0-7.5-3.358-7.5-7.5s3.358-7.5 7.5-7.5h479.905c4.142 0 7.5 3.358 7.5 7.5s-3.358 7.5-7.5 7.5z" fill="#ccf49f"/></g><path d="m65.134 119.203v57.106c0 3.045 2.469 5.514 5.514 5.514h62.062c3.045 0 5.514-2.469 5.514-5.514v-57.106c-10.799 0-62.29 0-73.09 0z" fill="#80b4fb"/><path d="m95.259 176.308v-57.106c-13.256 0-25.47 0-30.125 0v57.106c0 3.045 2.469 5.514 5.514 5.514h30.125c-3.045.001-5.514-2.468-5.514-5.514z" fill="#61a2f9"/><path d="m94.179 181.823h15v-62.62c-4.943 0-10.057 0-15 0z" fill="#9dc6fb"/><path d="m132.71 90.961h-62.062c-3.046 0-5.514 2.469-5.514 5.515v24.727h73.091v-24.727c0-3.046-2.469-5.515-5.515-5.515z" fill="#9dc6fb"/><path d="m99.694 90.961h-29.046c-3.045 0-5.514 2.469-5.514 5.515v24.727h29.046v-24.727c-.001-3.046 2.468-5.515 5.514-5.515z" fill="#80b4fb"/><path d="m181.43 119.203v57.106c0 3.045 2.469 5.514 5.514 5.514h62.062c3.045 0 5.514-2.469 5.514-5.514v-57.106c-10.8 0-62.29 0-73.09 0z" fill="#80b4fb"/><path d="m211.555 176.308v-57.106c-13.256 0-25.47 0-30.125 0v57.106c0 3.045 2.469 5.514 5.514 5.514h30.125c-3.045.001-5.514-2.468-5.514-5.514z" fill="#61a2f9"/><path d="m210.475 181.823h15v-62.62c-4.943 0-10.057 0-15 0z" fill="#9dc6fb"/><path d="m249.006 90.961h-62.062c-3.046 0-5.514 2.469-5.514 5.515v24.727h73.091v-24.727c-.001-3.046-2.469-5.515-5.515-5.515z" fill="#9dc6fb"/><path d="m215.99 90.961h-29.046c-3.045 0-5.514 2.469-5.514 5.515v24.727h29.046v-24.727c-.001-3.046 2.468-5.515 5.514-5.515z" fill="#80b4fb"/></g><g><path d="m172.967 458.035h4.408c4.143 0 7.5-3.358 7.5-7.5s-3.357-7.5-7.5-7.5h-4.408c-4.143 0-7.5 3.358-7.5 7.5s3.357 7.5 7.5 7.5z"/><path d="m70.52 83.461c-7.177 0-13.015 5.838-13.015 13.015v79.833c0 7.176 5.838 13.014 13.015 13.014h62.062c7.177 0 13.015-5.838 13.015-13.014 0-4.186 0-75.663 0-79.833 0-7.176-5.838-13.015-13.015-13.015zm23.53 90.862h-21.545v-45.62h21.545zm36.546 0h-21.546v-45.62h21.546zm0-60.62c-6.154 0-51.937 0-58.091 0v-15.242h58.091z"/><path d="m186.815 83.461c-7.177 0-13.015 5.838-13.015 13.015v79.833c0 7.176 5.838 13.014 13.015 13.014h62.062c7.177 0 13.015-5.838 13.015-13.014 0-4.186 0-75.663 0-79.833 0-7.176-5.838-13.015-13.015-13.015zm23.531 90.862h-21.545v-45.62h21.545zm36.546 0h-21.546v-45.62h21.546zm0-60.62c-6.154 0-51.937 0-58.091 0v-15.242h58.091z"/><path d="m15.509 227.552c-8.286 0-15.027 6.741-15.027 15.027v16.152c0 8.286 6.741 15.027 15.027 15.027h1.93v223.242h-1.391c-4.143 0-7.5 3.358-7.5 7.5s3.357 7.5 7.5 7.5h479.904c4.143 0 7.5-3.358 7.5-7.5s-3.357-7.5-7.5-7.5h-1.391c0-11.523 0-213.379 0-223.242h1.93c8.286 0 15.027-6.741 15.027-15.027v-16.152c0-8.286-6.741-15.027-15.027-15.027h-81.028c-4.143 0-7.5 3.358-7.5 7.5s3.357 7.5 7.5 7.5l81.056.027-.027 16.179-481.01-.027.027-16.179h364.954c4.143 0 7.5-3.358 7.5-7.5s-3.357-7.5-7.5-7.5h-78.118v-75.935c0-4.142-3.357-7.5-7.5-7.5s-7.5 3.358-7.5 7.5v75.935h-254.907v-181.345h254.906v70.41c0 4.142 3.357 7.5 7.5 7.5s7.5-3.358 7.5-7.5v-70.41h1.542c8.286 0 15.027-6.741 15.027-15.027v-16.153c.001-8.286-6.74-15.027-15.026-15.027h-288.378c-8.286 0-15.028 6.741-15.028 15.027v16.152c0 8.286 6.741 15.027 15.027 15.027h1.93v181.345h-1.929zm79.732 269.448h-16.207v-152.358h16.207zm94.107 0h-51.192v-92.93h51.192zm0-107.931h-51.192v-15.448h51.192zm27.914 107.931h-12.914c0-20.86 0-120.39 0-126.884 0-6.338-5.156-11.495-11.495-11.495h-58.203c-6.339 0-11.495 5.157-11.495 11.495v126.884h-12.914v-152.358h107.021zm31.206 0h-16.206v-152.358h16.206zm13.937-167.385-.027.027-197.28-.027.027-16.179 197.28.027zm97.549 167.385h-44.804v-84.282h44.804zm0-99.282h-44.804v-84.282h44.804zm59.804 99.282h-44.804v-84.282h44.804zm0-99.282h-44.804v-84.283h44.804zm59.804 99.282h-44.804v-84.282h44.804zm0-99.282h-44.804v-84.283h44.804zm-447.124-123.96h447.123v24.677c-9.626 0-157.572 0-165.966 0-7.414 0-13.445 6.031-13.445 13.445v185.12h-36.683v-152.413c7.777-.562 13.938-7.054 13.938-14.972v-16.152c0-8.286-6.741-15.027-15.027-15.027h-197.253c-8.286 0-15.027 6.741-15.027 15.027v16.152c0 7.918 6.16 14.409 13.937 14.972v152.413h-31.597zm-16.957-242.579.028-16.179h288.378l.027.027-.027 16.179z"/></g></g></svg>