<svg id="Capa_1" enable-background="new 0 0 512.009 512.009" height="512" viewBox="0 0 512.009 512.009" width="512" xmlns="http://www.w3.org/2000/svg"><g><g><g><path d="m421.705 176.251-159.886-134.479c-3.286-2.764-8.083-2.764-11.368 0l-159.887 134.479c-3.195 2.687-6.651 4.999-10.296 6.922v321.336h351.733v-321.336c-3.645-1.923-7.101-4.235-10.296-6.922z" fill="#fff5f5"/></g><path d="m121.268 150.426-30.704 25.825c-3.195 2.687-6.651 4.999-10.296 6.922v321.336h41z" fill="#eee1dd"/><path d="m399.194 129.771v-84.071h-31.845v55.721z" fill="#7b6c79"/><path d="m383.271 45.7h-15.922v55.721l15.922 14.175z" fill="#665e68"/><path d="m464.792 180.3-202.973-170.718c-3.286-2.764-8.083-2.764-11.368 0l-202.974 170.718c-6.306 5.303-2.555 15.589 5.684 15.589 13.685 0 26.93-4.83 37.403-13.638l159.886-134.479c3.286-2.764 8.083-2.764 11.368 0l159.887 134.479c10.473 8.809 23.718 13.638 37.403 13.638 8.239 0 11.989-10.285 5.684-15.589z" fill="#e27a66"/><g><path d="m250.45 47.773c.48-.404.995-.741 1.53-1.027l21.595-18.163c2.642-2.222 6.26-2.654 9.285-1.302l-21.041-17.699c-3.286-2.764-8.083-2.764-11.368 0l-202.974 170.718c-6.306 5.303-2.555 15.589 5.684 15.589 13.685 0 26.93-4.83 37.403-13.638z" fill="#dd544f"/></g><path d="m256.134 377.165c-22.124 0-40.058 17.935-40.058 40.058v87.286h40.058l4.179-3.322v-119.25z" fill="#785252"/><path d="m254.525 377.206c-21.376.846-38.448 18.434-38.448 40.017v87.286h20.733v-92.754c0-14.23 6.989-26.82 17.715-34.549z" fill="#523838"/><path d="m256.134 377.165v127.344h40.058v-87.286c.001-22.123-17.934-40.058-40.058-40.058z" fill="#9d6b6b"/><path d="m118.157 226.832v51.059c0 2.711 2.198 4.909 4.909 4.909h55.252c2.711 0 4.909-2.198 4.909-4.909v-51.059c-6.896 0-58.173 0-65.07 0z" fill="#80b4fb"/><path d="m144.192 277.891v-51.059c-12.152 0-23.104 0-26.035 0v51.059c0 2.711 2.198 4.909 4.909 4.909h26.035c-2.711 0-4.909-2.198-4.909-4.909z" fill="#61a2f9"/><path d="m178.319 201.909h-55.252c-2.711 0-4.909 2.198-4.909 4.91v22.014h65.071v-22.014c-.001-2.712-2.199-4.91-4.91-4.91z" fill="#9dc6fb"/><path d="m148.102 201.909h-25.035c-2.711 0-4.909 2.198-4.909 4.91v22.013h25.035v-22.013c-.001-2.712 2.197-4.91 4.909-4.91z" fill="#80b4fb"/><path d="m223.599 226.832v51.059c0 2.711 2.198 4.909 4.909 4.909h55.252c2.711 0 4.909-2.198 4.909-4.909v-51.059c-6.896 0-58.174 0-65.07 0z" fill="#80b4fb"/><path d="m249.634 277.891v-51.059c-12.152 0-23.104 0-26.035 0v51.059c0 2.711 2.198 4.909 4.909 4.909h26.035c-2.711 0-4.909-2.198-4.909-4.909z" fill="#61a2f9"/><path d="m283.76 201.909h-55.252c-2.711 0-4.909 2.198-4.909 4.91v22.014h65.071v-22.014c0-2.712-2.198-4.91-4.91-4.91z" fill="#9dc6fb"/><path d="m253.543 201.909h-25.035c-2.711 0-4.909 2.198-4.909 4.91v22.013h25.035v-22.013c0-2.712 2.198-4.91 4.909-4.91z" fill="#80b4fb"/><path d="m329.041 226.832v51.059c0 2.711 2.198 4.909 4.909 4.909h55.252c2.711 0 4.909-2.198 4.909-4.909v-51.059c-6.896 0-58.173 0-65.07 0z" fill="#80b4fb"/><path d="m355.076 277.891v-51.059c-12.152 0-23.104 0-26.035 0v51.059c0 2.711 2.198 4.909 4.909 4.909h26.035c-2.711 0-4.909-2.198-4.909-4.909z" fill="#61a2f9"/><path d="m389.202 201.909h-55.252c-2.711 0-4.909 2.198-4.909 4.91v22.014h65.071v-22.014c0-2.712-2.198-4.91-4.91-4.91z" fill="#9dc6fb"/><path d="m358.985 201.909h-25.035c-2.711 0-4.909 2.198-4.909 4.91v22.013h25.035v-22.013c0-2.712 2.198-4.91 4.909-4.91z" fill="#80b4fb"/><path d="m118.157 402.088v51.059c0 2.711 2.198 4.909 4.909 4.909h55.252c2.711 0 4.909-2.198 4.909-4.909v-51.059c-6.896 0-58.173 0-65.07 0z" fill="#80b4fb"/><path d="m144.192 453.147v-51.059c-12.152 0-23.104 0-26.035 0v51.059c0 2.711 2.198 4.909 4.909 4.909h26.035c-2.711 0-4.909-2.197-4.909-4.909z" fill="#61a2f9"/><path d="m178.319 377.165h-55.252c-2.711 0-4.909 2.198-4.909 4.91v22.014h65.071v-22.014c-.001-2.712-2.199-4.91-4.91-4.91z" fill="#9dc6fb"/><path d="m148.102 377.165h-25.035c-2.711 0-4.909 2.198-4.909 4.91v22.013h25.035v-22.013c-.001-2.712 2.197-4.91 4.909-4.91z" fill="#80b4fb"/><path d="m329.041 402.088v51.059c0 2.711 2.198 4.909 4.909 4.909h55.252c2.711 0 4.909-2.198 4.909-4.909v-51.059c-6.896 0-58.173 0-65.07 0z" fill="#80b4fb"/><path d="m355.076 453.147v-51.059c-12.152 0-23.104 0-26.035 0v51.059c0 2.711 2.198 4.909 4.909 4.909h26.035c-2.711 0-4.909-2.197-4.909-4.909z" fill="#61a2f9"/><path d="m389.202 377.165h-55.252c-2.711 0-4.909 2.198-4.909 4.91v22.014h65.071v-22.014c0-2.712-2.198-4.91-4.91-4.91z" fill="#9dc6fb"/><path d="m358.985 377.165h-25.035c-2.711 0-4.909 2.198-4.909 4.91v22.013h25.035v-22.013c0-2.712 2.198-4.91 4.909-4.91z" fill="#80b4fb"/></g><g><path d="m122.937 465.556h55.252c6.843 0 12.409-5.567 12.409-12.409 0-8.652 0-62.466 0-71.072 0-6.843-5.566-12.41-12.409-12.41h-55.252c-6.843 0-12.409 5.567-12.409 12.41v71.072c0 6.842 5.567 12.409 12.409 12.409zm52.662-15h-17.535v-38.968h17.535zm-50.071-65.891h50.07v11.923c-7.259 0-42.811 0-50.07 0zm0 26.924h17.535v38.968h-17.535z"/><path d="m333.821 465.556h55.252c6.843 0 12.409-5.567 12.409-12.409 0-8.652 0-62.466 0-71.072 0-6.843-5.566-12.41-12.409-12.41h-55.252c-6.843 0-12.409 5.567-12.409 12.41v71.072c0 6.842 5.566 12.409 12.409 12.409zm52.661-15h-17.535v-38.968h17.535zm-50.07-65.891h50.07v11.923c-7.259 0-42.811 0-50.07 0zm0 26.924h17.535v38.968h-17.535z"/><path d="m122.937 194.409c-6.843 0-12.409 5.567-12.409 12.41v22.013 49.059c0 6.842 5.566 12.409 12.409 12.409h27.626 27.626c6.843 0 12.409-5.567 12.409-12.409v-49.059-22.013c0-6.843-5.566-12.41-12.409-12.41zm20.126 80.891h-17.535v-38.968h17.535zm32.536 0h-17.535v-38.968h17.535zm0-53.968h-25.035-25.035v-11.923h50.07z"/><path d="m333.821 194.409c-6.843 0-12.409 5.567-12.409 12.41v22.013 49.059c0 6.842 5.566 12.409 12.409 12.409h27.626 27.626c6.843 0 12.409-5.567 12.409-12.409v-49.059-22.013c0-6.843-5.566-12.41-12.409-12.41zm20.126 80.891h-17.535v-38.968h17.535zm32.535 0h-17.535v-38.968h17.535zm0-53.968h-25.035-25.035v-11.923h50.07z"/><path d="m228.38 194.409c-6.843 0-12.41 5.567-12.41 12.41v22.013 49.059c0 6.842 5.567 12.409 12.41 12.409h27.626 27.626c6.843 0 12.409-5.567 12.409-12.409v-49.059-22.013c0-6.843-5.566-12.41-12.409-12.41zm20.126 80.891h-17.536v-38.968h17.536zm32.535 0h-17.535v-38.968h17.535zm0-53.968h-25.035-25.036v-11.923h50.071z"/><path d="m431.872 236.332c4.143 0 7.5-3.358 7.5-7.5v-28.451c6.305 1.976 12.915 3.008 19.606 3.008 15.233 0 22.16-19.033 10.512-28.829l-62.926-52.926v-69.608c2.092-1.331 3.483-3.664 3.483-6.327 0-4.142-3.357-7.5-7.5-7.5-23.647 0 20.814 0-38.811 0-4.143 0-7.5 3.358-7.5 7.5 0 2.663 1.392 4.996 3.483 6.327v30.209l-43.669-36.731c-3.17-2.667-7.902-2.258-10.566.912-2.667 3.17-2.259 7.901.912 10.567 12.277 10.326 146.079 122.865 153.44 129.057.97.819.412 2.349-.857 2.349-12.24 0-23.78-4.482-32.575-11.878l-159.887-134.478c-6.091-5.124-14.933-5.124-21.023 0l-159.888 134.478c-.011.01-.023.018-.035.028-8.772 7.361-20.278 11.85-32.539 11.85-1.267 0-1.829-1.531-.857-2.349l202.973-170.718c.497-.417 1.215-.418 1.714 0l22.736 19.123c3.171 2.666 7.9 2.258 10.566-.912 2.667-3.17 2.258-7.901-.912-10.567l-22.735-19.123c-6.091-5.124-14.933-5.124-21.023 0l-202.975 170.718c-11.657 9.805-4.706 28.828 10.513 28.828 6.692 0 13.302-1.032 19.606-3.008v121.372h-2.717c-4.143 0-7.5 3.358-7.5 7.5s3.357 7.5 7.5 7.5h2.717v160.256h-2.717c-4.143 0-7.5 3.358-7.5 7.5s3.357 7.5 7.5 7.5h372.167c4.143 0 7.5-3.358 7.5-7.5s-3.357-7.5-7.5-7.5h-2.717v-160.255h2.717c4.143 0 7.5-3.358 7.5-7.5s-3.357-7.5-7.5-7.5h-2.717v-57.921c0-4.142-3.357-7.5-7.5-7.5s-7.5 3.358-7.5 7.5v57.921h-336.732v-128.24c2.291-1.421 5.186-3.474 7.623-5.523l159.886-134.479c.497-.416 1.215-.419 1.714 0l159.886 134.479c.016.013.032.025.047.038 2.445 2.051 5.319 4.083 7.577 5.486v35.318c0 4.141 3.357 7.499 7.5 7.499zm-40.308-127.314-16.844-14.167v-41.651h16.844zm-143.058 387.991h-25.059v-79.786c0-15.372 10.709-28.291 25.059-31.687zm40.057 0h-25.058v-111.472c14.349 3.396 25.058 16.314 25.058 31.687zm135.809-160.255v160.256h-120.809v-79.786c0-26.224-21.334-47.558-47.558-47.558s-47.558 21.334-47.558 47.557v79.786h-120.808v-160.255z"/></g></g></svg>